<svg xmlns="http://www.w3.org/2000/svg" viewBox="0 0 24.0 24.0">
  <g transform="rotate(-0.000,12.000,12.000) scale(1,1.000)">
    <path d="M12.00,22.00C17.47,22.00,21.16,17.60,20.40,12.42C19.68,8.31,15.58,4.13,12.00,2.00C8.42,4.13,4.32,8.31,3.60,12.42C2.84,17.60,6.53,22.00,12.00,22.00zM11.13,14.38L12.88,14.38L12.88,12.63L11.13,12.63zM11.13,16.63L11.13,10.38A0.88 0.88 0 0 1 12.00,9.50L12.00,9.50A0.88 0.88 0 0 1 12.88,10.38L12.88,16.63A0.88 0.88 0 0 1 12.00,17.50L12.00,17.50A0.88 0.88 0 0 1 11.13,16.63zM8.88,12.63L15.13,12.63A0.87 0.87 0 0 1 16.00,13.50L16.00,13.50A0.87 0.87 0 0 1 15.13,14.38L8.88,14.38A0.87 0.87 0 0 1 8.00,13.50L8.00,13.50A0.87 0.87 0 0 1 8.88,12.63z" fill="none"/>
  </g>
</svg>