<svg xmlns="http://www.w3.org/2000/svg" viewBox="0 0 24.0 24.0">
  <path d="M18.16,17.57A8.35 8.25 -0.00 0 1 7.43,18.90M6.23,18.02L9.22,16.87L6.95,21.25L6.23,18.02z" fill="#00000000" stroke="#ff000000" stroke-width="2.1154306"/>
  <path d="M18.16,17.57C19.93,15.68,20.91,12.78,20.01,9.67" fill="#00000000" stroke="#66000000" stroke-width="2.1154306"/>
  <path d="M5.84,6.43A8.35 8.25 -0.00 0 1 16.57,5.10M17.77,5.98L14.78,7.13L17.05,2.75L17.77,5.98z" fill="#00000000" stroke="#ff000000" stroke-width="2.1154306"/>
  <path d="M5.84,6.43C4.07,8.32,3.09,11.22,3.99,14.33" fill="#00000000" stroke="#66000000" stroke-width="2.1154306"/>
  <path d="M12.00,10.00C13.10,10.00,14.00,10.90,14.00,12.00C14.00,13.10,13.10,14.00,12.00,14.00C10.90,14.00,10.00,13.10,10.00,12.00C10.00,10.90,10.90,10.00,12.00,10.00z" fill="#00000000" stroke="#66000000" stroke-width="2.1154306"/>
</svg>